<svg width="248" height="128" viewBox="0 0 248 128" fill="none" xmlns="http://www.w3.org/2000/svg">
<path d="M146.381 24.1201C153.311 24.1201 160.241 24.1201 167.381 24.1201C167.875 25.9854 168.368 27.8507 168.877 29.7725C169.524 32.2009 170.171 34.6293 170.818 37.0576C171.307 38.9052 171.307 38.9052 171.805 40.79C172.117 41.9599 172.43 43.1297 172.752 44.335C173.04 45.419 173.328 46.503 173.625 47.6199C174.141 50.0379 174.141 50.0379 175.381 51.1201C175.588 50.3377 175.794 49.5554 176.008 48.7493C176.941 45.2261 177.88 41.7044 178.818 38.1826C179.144 36.9509 179.469 35.7192 179.805 34.4502C180.117 33.2804 180.43 32.1105 180.752 30.9053C181.04 29.8213 181.328 28.7372 181.625 27.6204C182.381 25.1201 182.381 25.1201 183.381 24.1201C189.981 24.1201 196.581 24.1201 203.381 24.1201C203.381 41.9401 203.381 59.7601 203.381 78.1201C198.101 78.1201 192.821 78.1201 187.381 78.1201C187.051 71.5201 186.721 64.9201 186.381 58.1201C184.731 64.7201 183.081 71.3201 181.381 78.1201C177.091 78.1201 172.801 78.1201 168.381 78.1201C166.401 70.2001 164.421 62.2801 162.381 54.1201C162.051 62.0401 161.721 69.9601 161.381 78.1201C156.431 78.1201 151.481 78.1201 146.381 78.1201C146.381 60.3001 146.381 42.4801 146.381 24.1201Z" fill="black" fill-opacity="0.1"/>
<path d="M42.3809 24.1201C47.9909 24.1201 53.6009 24.1201 59.3809 24.1201C59.4183 26.7562 59.4557 29.3924 59.4942 32.1084C59.5404 34.6602 59.5916 37.2118 59.6434 39.7634C59.6766 41.5374 59.7047 43.3115 59.7274 45.0857C59.7609 47.6354 59.8132 50.1841 59.8692 52.7334C59.8756 53.5272 59.882 54.3211 59.8886 55.139C59.9769 59.3693 59.9769 59.3693 61.7215 63.1287C64.2817 64.6583 66.4711 64.3678 69.3809 64.1201C70.3709 63.6251 70.3709 63.6251 71.3809 63.1201C72.6257 59.3859 72.613 55.8465 72.6973 51.9521C72.7181 51.1573 72.7389 50.3625 72.7603 49.5436C72.8256 47.0067 72.8846 44.4697 72.9434 41.9326C72.9866 40.2119 73.0302 38.4912 73.0743 36.7705C73.1821 32.5538 73.2813 28.337 73.3809 24.1201C78.9909 24.1201 84.6009 24.1201 90.3809 24.1201C90.4803 29.8126 90.5526 35.5046 90.6006 41.1978C90.6207 43.1318 90.6479 45.0657 90.6827 46.9995C90.7316 49.7899 90.754 52.5794 90.7715 55.3701C90.7922 56.2257 90.8128 57.0812 90.8341 57.9626C90.8363 63.7977 89.7436 68.2792 86.3809 73.1201C80.6853 78.7195 74.233 79.8095 66.5059 80.4326C60.0937 80.2274 53.0762 78.7859 47.8809 74.8701C42.4259 68.8696 41.9482 63.2372 42.0879 55.4678C42.0922 54.5676 42.0964 53.6675 42.1008 52.7401C42.1175 49.8873 42.1551 47.0352 42.1934 44.1826C42.2085 42.2393 42.2222 40.2959 42.2344 38.3525C42.2674 33.6081 42.3191 28.8642 42.3809 24.1201Z" fill="black" fill-opacity="0.1"/>
<path d="M98.3809 24.1201C111.911 24.1201 125.441 24.1201 139.381 24.1201C139.381 28.7401 139.381 33.3601 139.381 38.1201C131.461 38.1201 123.541 38.1201 115.381 38.1201C115.381 40.1001 115.381 42.0801 115.381 44.1201C121.981 44.1201 128.581 44.1201 135.381 44.1201C135.381 48.4101 135.381 52.7001 135.381 57.1201C128.781 57.1201 122.181 57.1201 115.381 57.1201C115.381 59.4301 115.381 61.7401 115.381 64.1201C123.631 64.1201 131.881 64.1201 140.381 64.1201C140.381 68.7401 140.381 73.3601 140.381 78.1201C126.521 78.1201 112.661 78.1201 98.3809 78.1201C98.3809 60.3001 98.3809 42.4801 98.3809 24.1201Z" fill="black" fill-opacity="0.1"/>
<path d="M121.012 108.413C123.749 108.433 126.48 108.393 129.217 108.349C141.445 108.293 151.863 110.461 163.389 114.462C172.706 117.541 182.664 117.657 192.381 118.12C191.381 120.12 191.381 120.12 189.299 120.972C172.554 125.715 157.516 121.4 141.381 116.12C142.129 116.495 142.876 116.87 143.646 117.257C153.428 122.34 153.428 122.34 156.381 127.12C153.411 127.12 150.441 127.12 147.381 127.12C147.381 126.46 147.381 125.8 147.381 125.12C146.7 124.864 146.02 124.607 145.318 124.343C141.278 122.661 137.426 120.63 133.553 118.599C128.816 116.173 125.579 114.529 120.33 115.94C113.885 118.518 108.169 121.298 102.381 125.12C101.721 125.12 101.061 125.12 100.381 125.12C100.381 125.78 100.381 126.44 100.381 127.12C97.4109 127.12 94.4409 127.12 91.3809 127.12C91.3809 126.46 91.3809 125.8 91.3809 125.12C93.1648 123.84 95.0094 122.644 96.8809 121.495C97.9018 120.863 98.9227 120.232 99.9746 119.581C100.769 119.099 101.563 118.617 102.381 118.12C98.9149 118.12 96.4238 118.982 93.1309 120.058C81.3045 123.748 68.497 125.222 56.8809 119.995C56.1384 119.562 56.1384 119.562 55.3809 119.12C55.3809 118.79 55.3809 118.46 55.3809 118.12C56.385 118.083 57.3892 118.045 58.4238 118.007C68.7537 117.544 78.3383 116.118 88.2139 112.88C99.2271 109.369 109.479 108.305 121.012 108.413Z" fill="black" fill-opacity="0.1"/>
<path d="M27.3808 6.12012C28.0408 6.45012 28.7008 6.78012 29.3808 7.12012C29.727 12.7741 28.8151 16.1502 26.3808 21.1201C27.1543 20.6264 27.9277 20.1327 28.7246 19.624C34.7169 15.9381 39.2858 13.2566 46.3808 13.1201C46.3006 15.8476 45.8475 17.6033 44.0019 19.6475C40.0933 23.0839 35.9693 25.6854 31.3808 28.1201C32.3708 28.1201 33.3608 28.1201 34.3808 28.1201C35.0983 34.0992 35.0983 34.0992 33.1152 36.9209C31.5973 38.4646 30.1489 39.8696 28.3808 41.1201C27.7208 41.1201 27.0608 41.1201 26.3808 41.1201C26.3808 41.7801 26.3808 42.4401 26.3808 43.1201C24.4824 44.7412 24.4824 44.7412 22.0058 46.5576C19.1071 48.688 17.4002 50.0911 15.3808 53.1201C11.5156 51.6614 10.4105 49.8716 8.69333 46.1826C8.27697 45.3073 7.8606 44.4321 7.43161 43.5303C4.71357 37.2959 4.24937 31.0835 6.69333 24.6826C8.11996 22.5163 9.41903 20.8017 11.3808 19.1201C12.3708 19.4501 13.3608 19.7801 14.3808 20.1201C14.4414 21.0959 14.502 22.0718 14.5644 23.0771C14.6482 24.3495 14.732 25.6218 14.8183 26.9326C14.8995 28.1972 14.9808 29.4618 15.0644 30.7646C15.2527 34.1119 15.2527 34.1119 16.3808 37.1201C19.8458 34.6451 19.8458 34.6451 23.3808 32.1201C21.4008 32.4501 19.4208 32.7801 17.3808 33.1201C15.8047 25.2393 15.5172 19.2955 19.3808 12.1201C21.718 9.33065 23.9399 7.38181 27.3808 6.12012ZM26.3808 29.1201C26.0508 29.7801 25.7208 30.4401 25.3808 31.1201C26.3708 30.7901 27.3608 30.4601 28.3808 30.1201C27.7208 29.7901 27.0608 29.4601 26.3808 29.1201Z" fill="black" fill-opacity="0.1"/>
<path d="M0.380932 39.1201C1.04093 39.1201 1.70093 39.1201 2.38093 39.1201C4.11143 41.5066 5.73075 43.8912 7.31843 46.3701C8.20155 47.7301 9.08564 49.0895 9.97078 50.4482C10.3857 51.087 10.8006 51.7257 11.2281 52.3838C12.5376 54.3561 13.9239 56.2543 15.3809 58.1201C15.7316 57.1095 16.0822 56.0989 16.4434 55.0576C18.3797 50.5305 21.4766 47.0924 25.3809 44.1201C27.6036 43.4248 27.6036 43.4248 29.3809 43.1201C29.1054 50.8341 26.665 57.1678 23.8536 64.2529C22.4485 67.8237 21.3769 71.4154 20.3809 75.1201C12.3224 72.3716 5.00173 65.4529 1.14265 57.8701C-0.540046 51.7952 0.0364968 45.3582 0.380932 39.1201Z" fill="black" fill-opacity="0.1"/>
<path d="M245.381 39.1201C246.041 39.4501 246.701 39.7801 247.381 40.1201C248.053 50.4858 247.461 57.9883 240.701 66.1475C237.294 69.7289 233.651 72.6375 229.381 75.1201C228.721 75.1201 228.061 75.1201 227.381 75.1201C226.251 71.7885 225.128 68.4545 224.006 65.1201C223.689 64.1855 223.372 63.251 223.045 62.2881C218.381 48.3931 218.381 48.3931 218.381 43.1201C223.991 44.4801 227.08 48.6704 230.381 53.1201C231.818 56.1201 231.818 56.1201 232.381 58.1201C234.886 54.8608 237.172 51.4836 239.443 48.0576C240.482 46.4933 240.482 46.4933 241.541 44.8975C242.148 43.9809 242.755 43.0644 243.381 42.1201C244.041 41.1301 244.701 40.1401 245.381 39.1201Z" fill="black" fill-opacity="0.1"/>
<path d="M40.3809 78.1201C43.8666 79.282 44.1024 79.8515 45.8691 82.9092C46.3287 83.6865 46.7882 84.4638 47.2617 85.2646C47.9704 86.4925 47.9704 86.4925 48.6934 87.7451C51.8408 93.1771 54.9729 98.119 59.2683 102.723C60.3809 104.12 60.3809 104.12 60.3809 106.12C43.5192 105.255 27.8747 103.482 14.3809 92.1201C14.3809 91.4601 14.3809 90.8001 14.3809 90.1201C13.0609 89.4601 11.7409 88.8001 10.3809 88.1201C10.7109 87.1301 11.0409 86.1401 11.3809 85.1201C12.2436 85.4533 13.1064 85.7866 13.9954 86.1299C17.1975 87.3639 20.4012 88.5934 23.6062 89.8198C24.993 90.3516 26.379 90.8851 27.7644 91.4204C29.7559 92.1896 31.7497 92.9523 33.7441 93.7139C34.9434 94.1747 36.1426 94.6355 37.3782 95.1104C40.3268 96.2795 40.3268 96.2795 43.3809 96.1201C42.9065 95.5014 42.4321 94.8826 41.9434 94.2451C39.8182 89.9947 39.4129 85.8482 39.3809 81.1201C39.7109 80.1301 40.0409 79.1401 40.3809 78.1201Z" fill="black" fill-opacity="0.1"/>
<path d="M0.380976 62.1201C2.36098 63.1101 2.36098 63.1101 4.38098 64.1201C4.38098 64.7801 4.38098 65.4401 4.38098 66.1201C4.97121 66.3972 5.56144 66.6743 6.16955 66.9597C8.25199 68.0524 9.93508 69.2179 11.7638 70.6865C12.3735 71.1719 12.9832 71.6572 13.6114 72.1572C14.2366 72.6606 14.8618 73.164 15.506 73.6826C19.7285 77.2254 19.7285 77.2254 24.381 80.1201C24.3191 78.8207 24.2572 77.5214 24.1935 76.1826C24.1691 71.0646 25.5066 66.8394 27.381 62.1201C28.371 62.1201 29.361 62.1201 30.381 62.1201C31.9136 64.9097 32.7208 67.2742 33.1622 70.4209C33.2821 71.2337 33.402 72.0464 33.5255 72.8838C33.6428 73.7249 33.7601 74.566 33.881 75.4326C34.6903 81.1554 35.6521 86.5982 37.381 92.1201C25.4326 91.058 14.6042 85.9977 6.50598 77.1201C2.67423 72.4527 -0.170339 68.3684 0.380976 62.1201Z" fill="black" fill-opacity="0.1"/>
<path d="M205.381 78.1201C206.041 78.1201 206.701 78.1201 207.381 78.1201C208.961 85.2308 207.485 89.6194 204.381 96.1201C208.08 96.1201 210.56 95.0424 214.018 93.7139C214.977 93.3476 214.977 93.3476 215.955 92.974C217.995 92.194 220.032 91.4072 222.068 90.6201C223.452 90.0897 224.835 89.5598 226.219 89.0303C229.608 87.7321 232.995 86.4278 236.381 85.1201C236.876 86.1101 236.876 86.1101 237.381 87.1201C233.253 92.7295 228.339 95.677 222.381 99.1201C221.366 99.7292 221.366 99.7292 220.33 100.351C210.809 105.331 198.002 106.405 187.381 106.12C188.894 102.812 190.817 100.082 193.006 97.1826C196.962 91.8407 200.368 86.3083 203.717 80.5771C204.266 79.7663 204.815 78.9555 205.381 78.1201Z" fill="black" fill-opacity="0.1"/>
<path d="M217.381 62.1201C218.371 62.1201 219.361 62.1201 220.381 62.1201C222.517 68.3253 223.746 73.547 223.381 80.1201C231.384 74.4799 238.932 68.4642 246.381 62.1201C247.259 64.5639 247.457 65.8541 246.736 68.3818C241.347 79.5745 232.836 85.8199 221.381 90.1201C220.267 90.5532 219.153 90.9864 218.006 91.4326C215.337 92.1317 213.124 92.1706 210.381 92.1201C210.574 91.4163 210.768 90.7125 210.967 89.9873C212.791 83.0686 214.013 76.2573 214.854 69.1514C215.334 66.3923 215.969 64.5106 217.381 62.1201Z" fill="black" fill-opacity="0.1"/>
<path d="M58.3809 93.1201C58.9777 93.5326 59.5745 93.9451 60.1895 94.3701C69.1956 100.365 79.0909 105.69 89.3809 109.12C89.3809 109.78 89.3809 110.44 89.3809 111.12C74.4485 116.583 53.3332 116.451 38.3809 111.12C35.4438 109.647 33.0338 108.083 30.3809 106.12C30.7109 105.13 31.0409 104.14 31.3809 103.12C32.1195 103.325 32.8581 103.53 33.6191 103.741C44.6318 106.666 55.0204 107.299 66.3809 107.12C65.4527 106.604 64.5246 106.089 63.5684 105.558C59.7638 103.033 58.715 100.436 57.3809 96.1201C57.7109 95.1301 58.0409 94.1401 58.3809 93.1201Z" fill="black" fill-opacity="0.1"/>
<path d="M188.381 93.1201C188.711 93.1201 189.041 93.1201 189.381 93.1201C189.881 96.1826 189.881 96.1826 189.381 100.12C186.993 102.833 184.288 104.985 181.381 107.12C193.476 107.532 205.726 106.519 217.381 103.12C216.786 106.475 216.57 106.975 213.693 109.183C197.469 117.392 174.378 116.147 157.381 111.12C158.636 108.61 159.477 108.474 162.029 107.421C162.783 107.102 163.536 106.783 164.313 106.454C165.119 106.117 165.925 105.78 166.756 105.433C178.371 100.584 178.371 100.584 188.381 93.1201Z" fill="black" fill-opacity="0.1"/>
<path d="M233.381 19.1201C237.989 20.2722 237.989 20.2722 240.131 23.5576C242.933 28.4248 243.284 32.6247 242.381 38.1201C240.734 43.863 238.496 48.7106 234.381 53.1201C230.621 51.8669 229.819 50.1977 227.381 47.1201C225.565 45.5335 223.709 43.9921 221.818 42.4951C214.867 36.9682 214.867 36.9682 213.381 35.1201C213.193 31.4326 213.193 31.4326 213.381 28.1201C217.654 28.6872 220.431 30.1892 224.006 32.5576C224.947 33.1751 225.888 33.7925 226.857 34.4287C228.107 35.266 228.107 35.266 229.381 36.1201C230.371 36.7801 231.361 37.4401 232.381 38.1201C232.711 31.8501 233.041 25.5801 233.381 19.1201Z" fill="black" fill-opacity="0.1"/>
<path d="M218.381 6.12012C223.299 7.17396 226.114 9.07761 229.186 12.9287C232.496 18.9973 231.694 26.5546 230.381 33.1201C225.142 32.5785 221.397 30.8213 216.881 28.3076C216.243 27.9641 215.605 27.6205 214.947 27.2666C202.85 20.6736 202.85 20.6736 201.381 16.1201C201.381 15.1301 201.381 14.1401 201.381 13.1201C206.541 12.6952 209.276 13.8383 213.631 16.5576C214.667 17.1957 215.704 17.8338 216.771 18.4912C217.633 19.0288 218.494 19.5663 219.381 20.1201C220.041 20.4501 220.701 20.7801 221.381 21.1201C220.886 20.1301 220.391 19.1401 219.881 18.1201C218.08 13.9853 218.146 10.5881 218.381 6.12012Z" fill="black" fill-opacity="0.1"/>
<path d="M65.3808 84.1201C79.2408 84.1201 93.1008 84.1201 107.381 84.1201C107.381 84.7801 107.381 85.4401 107.381 86.1201C106.721 86.1201 106.061 86.1201 105.381 86.1201C105.381 88.7601 105.381 91.4001 105.381 94.1201C103.381 93.1201 103.381 93.1201 102.381 90.1201C101.391 90.1201 100.401 90.1201 99.3808 90.1201C98.8858 88.1401 98.8858 88.1401 98.3808 86.1201C98.3808 88.7601 98.3808 91.4001 98.3808 94.1201C97.7208 93.7901 97.0608 93.4601 96.3808 93.1201C96.3808 90.8101 96.3808 88.5001 96.3808 86.1201C95.7208 86.1201 95.0608 86.1201 94.3808 86.1201C94.3808 88.7601 94.3808 91.4001 94.3808 94.1201C90.9433 92.9326 90.9433 92.9326 87.3808 91.1201C86.4433 88.4326 86.4433 88.4326 86.3808 86.1201C86.3808 88.7601 86.3808 91.4001 86.3808 94.1201C84.777 94.1743 83.1727 94.213 81.5683 94.2451C80.675 94.2683 79.7817 94.2915 78.8613 94.3154C76.3808 94.1201 76.3808 94.1201 73.3808 92.1201C73.3808 92.7801 73.3808 93.4401 73.3808 94.1201C72.7208 94.1201 72.0608 94.1201 71.3808 94.1201C71.0508 93.4601 70.7208 92.8001 70.3808 92.1201C68.7308 92.4501 67.0808 92.7801 65.3808 93.1201C64.4619 89.4444 64.4218 87.9563 65.3808 84.1201ZM70.3808 86.1201C71.3808 88.1201 71.3808 88.1201 71.3808 88.1201L70.3808 86.1201ZM73.3808 86.1201C73.3808 87.1101 73.3808 88.1001 73.3808 89.1201C74.7008 89.1201 76.0208 89.1201 77.3808 89.1201C77.3808 88.1301 77.3808 87.1401 77.3808 86.1201C76.0608 86.1201 74.7408 86.1201 73.3808 86.1201ZM83.3808 86.1201C83.0508 87.1101 82.7208 88.1001 82.3808 89.1201C83.3708 90.6051 83.3708 90.6051 84.3808 92.1201C84.3808 90.1401 84.3808 88.1601 84.3808 86.1201C84.0508 86.1201 83.7208 86.1201 83.3808 86.1201ZM79.3808 88.1201C80.3808 90.1201 80.3808 90.1201 80.3808 90.1201L79.3808 88.1201Z" fill="black" fill-opacity="0.1"/>
<path d="M151.381 84.1201C161.281 84.1201 171.181 84.1201 181.381 84.1201C181.381 87.0901 181.381 90.0601 181.381 93.1201C182.041 94.4401 182.701 95.7601 183.381 97.1201C181.401 96.4601 179.421 95.8001 177.381 95.1201C177.381 93.4701 177.381 91.8201 177.381 90.1201C175.44 90.3963 175.44 90.3963 173.381 91.1201C172.391 92.6051 172.391 92.6051 171.381 94.1201C171.051 92.4701 170.721 90.8201 170.381 89.1201C169.061 89.4501 167.741 89.7801 166.381 90.1201C165.721 88.8001 165.061 87.4801 164.381 86.1201C164.381 88.7601 164.381 91.4001 164.381 94.1201C163.391 94.1201 162.401 94.1201 161.381 94.1201C160.556 94.3264 159.731 94.5326 158.881 94.7451C156.381 95.1201 156.381 95.1201 153.381 93.1201C153.338 91.1206 153.34 89.1197 153.381 87.1201C152.721 86.1301 152.061 85.1401 151.381 84.1201ZM172.381 86.1201C173.381 88.1201 173.381 88.1201 173.381 88.1201L172.381 86.1201ZM175.381 86.1201C175.381 86.7801 175.381 87.4401 175.381 88.1201C176.041 88.1201 176.701 88.1201 177.381 88.1201C177.381 87.4601 177.381 86.8001 177.381 86.1201C176.721 86.1201 176.061 86.1201 175.381 86.1201Z" fill="black" fill-opacity="0.1"/>
<path d="M136.381 79.1201C139.266 80.4133 141.441 81.5935 143.381 84.1201C143.455 86.6006 143.455 86.6006 143.068 89.3076C142.948 90.2087 142.829 91.1097 142.705 92.0381C142.598 92.7252 142.491 93.4122 142.381 94.1201C139.411 93.6251 139.411 93.6251 136.381 93.1201C135.721 90.8101 135.061 88.5001 134.381 86.1201C134.381 88.7601 134.381 91.4001 134.381 94.1201C133.968 93.6457 133.556 93.1714 133.131 92.6826C131.49 90.9674 131.49 90.9674 129.256 90.6201C128.637 90.4551 128.018 90.2901 127.381 90.1201C127.051 89.1301 126.721 88.1401 126.381 87.1201C126.051 89.4301 125.721 91.7401 125.381 94.1201C123.381 93.1201 123.381 93.1201 122.381 90.1201C121.391 90.6151 121.391 90.6151 120.381 91.1201C120.711 92.1101 121.041 93.1001 121.381 94.1201C119.506 93.4951 119.506 93.4951 117.381 92.1201C116.193 89.1201 116.193 89.1201 115.381 86.1201C115.051 85.4601 114.721 84.8001 114.381 84.1201C122.301 83.7901 130.221 83.4601 138.381 83.1201C137.721 82.7901 137.061 82.4601 136.381 82.1201C136.381 81.1301 136.381 80.1401 136.381 79.1201ZM131.381 86.1201C132.381 88.1201 132.381 88.1201 132.381 88.1201L131.381 86.1201ZM137.381 89.1201C138.041 89.7801 138.701 90.4401 139.381 91.1201C139.381 90.4601 139.381 89.8001 139.381 89.1201C138.721 89.1201 138.061 89.1201 137.381 89.1201Z" fill="black" fill-opacity="0.1"/>
<path d="M193.381 0.120137C201.811 -0.406767 207.595 1.99277 213.936 7.52248C216.847 10.741 217.381 12.7286 217.381 17.1201C209.159 14.9566 198.484 9.33909 194.006 1.80764C193.8 1.25076 193.593 0.693887 193.381 0.120137Z" fill="black" fill-opacity="0.1"/>
<path d="M54.3809 0.120113C49.8013 8.65482 40.9849 13.279 32.3809 17.1201C31.7209 17.1201 31.0609 17.1201 30.3809 17.1201C30.623 12.1556 32.1616 9.29123 35.4434 5.73339C40.9118 1.18001 47.4001 -0.486909 54.3809 0.120113Z" fill="black" fill-opacity="0.1"/>
</svg>
